<?xml version="1.0" encoding="utf-8"?>
<!-- Generator: Adobe Illustrator 28.2.0, SVG Export Plug-In . SVG Version: 6.00 Build 0)  -->
<svg version="1.1" id="Layer_1" xmlns="http://www.w3.org/2000/svg" xmlns:xlink="http://www.w3.org/1999/xlink" x="0px" y="0px"
	 viewBox="0 0 40.02 40.55" style="enable-background:new 0 0 40.02 40.55;" xml:space="preserve">
<style type="text/css">
	.st0{fill:#0291CA;}
</style>
<path class="st0" d="M0.63,9.9c0.24-0.65,0.4-1.34,0.74-1.93C2.25,6.5,3.61,5.72,5.33,5.66c1.6-0.05,3.19-0.01,4.79-0.01
	c0.06,0,0.12,0.01,0.21,0.02c0.01,0.12,0.03,0.23,0.03,0.33c0,1.37-0.01,2.74,0.01,4.11c0,0.32-0.1,0.4-0.41,0.4
	c-1.37-0.01-2.74,0-4.11-0.01c-0.29,0-0.36,0.09-0.36,0.37c0.01,7.88,0.01,15.77,0.01,23.65c0,0.09,0.01,0.18,0.02,0.31
	c0.14,0.01,0.27,0.02,0.4,0.02c7.83,0,15.66,0,23.5,0.01c0.37,0,0.44-0.12,0.43-0.45c-0.01-2.93-0.01-5.86-0.01-8.78
	c0-0.15,0-0.3,0-0.48c1.63,0,3.21,0,4.84,0c0.01,0.14,0.02,0.27,0.02,0.41c0,3.09,0.01,6.18,0,9.28c0,2.71-2.14,4.87-4.85,4.87
	c-8.12,0.01-16.25,0.01-24.37,0c-2.39,0-4.37-1.7-4.77-4.04c-0.01-0.07-0.05-0.14-0.08-0.21C0.63,26.94,0.63,18.42,0.63,9.9z"/>
<path class="st0" d="M28.16,0.77c0.42,0.37,0.84,0.76,1.28,1.12c3.29,2.75,6.58,5.49,9.87,8.23c0.07,0.06,0.14,0.13,0.24,0.22
	c-3.8,3.17-7.59,6.32-11.44,9.53c0-1.94,0-3.82,0-5.66c-0.07-0.04-0.1-0.06-0.12-0.06c-1.56,0-3.12-0.04-4.68,0.02
	c-2.17,0.07-4.12,0.86-5.95,2c-1.57,0.97-2.97,2.16-4.29,3.44c-0.06,0.06-0.13,0.12-0.29,0.27c0.04-0.61,0.05-1.12,0.1-1.62
	c0.35-3.06,1.51-5.77,3.61-8.04c1.8-1.95,3.96-3.28,6.63-3.62c0.91-0.12,1.85-0.08,2.77-0.09c0.71-0.01,1.42,0,2.18,0
	c0-1.93,0-3.83,0-5.74C28.11,0.77,28.14,0.77,28.16,0.77z"/>
</svg>
